<svg xmlns="http://www.w3.org/2000/svg" viewBox="0 0 104 91" width="104" height="91">
	<defs>
		<clipPath clipPathUnits="userSpaceOnUse" id="cp1">
			<path d="M-1042 -1899L324 -1899L324 960L-1042 960Z" />
		</clipPath>
		<clipPath clipPathUnits="userSpaceOnUse" id="cp2">
			<path d="M24.65 28.02L59.6 35.78L68.66 14.44L25.95 4.13L24.65 28.02Z" />
		</clipPath>
	</defs>
	<style>
		tspan { white-space:pre }
		.shp0 { fill: #447fe0 } 
		.shp1 { fill: #2f50ba } 
		.shp2 { fill: #84ce95 } 
		.shp3 { fill: #4a73e8 } 
		.shp4 { fill: #e49d01 } 
		.shp5 { fill: #ffcc13 } 
		.shp6 { fill: #ffffff } 
		.shp7 { fill: #ce8b05 } 
		.shp8 { fill: #ffd30f } 
		.shp9 { fill: #a8cafc } 
		.shp10 { fill: #3e61c1 } 
		.shp11 { fill: #edf0fa } 
		.shp12 { fill: #d4d7de } 
		.shp13 { fill: #2c4ba3 } 
		.shp14 { fill: #f1ce30 } 
		.shp15 { fill: #f0c82f } 
	</style>
	<g id="Home page" clip-path="url(#cp1)">
		<g id="Recharge Cartes &amp; wallet">
			<g id="2339887">
				<g id="OBJECTS">
					<g id="Group 1175">
						<g id="Group 1174">
							<g id="Group 1173">
								<g id="Group 1104">
									<g id="Group 1094">
										<path id="Path 2368" className="shp0" d="M76.19 30.53L75.36 30.45L75.36 69.48L74.6 69.34L73.51 73.91C73.51 73.91 78.02 73.79 78.02 69.95L78.02 33.81C78.02 31.35 76.86 30.68 76.19 30.53Z" />
										<path id="Path 2369" className="shp1" d="M73.74 30.62L29.12 20.85L29.12 20.85C28.28 20.61 27.4 20.48 26.48 20.48C21.24 20.48 17 22.63 17 27.86C17 33.1 21.24 37.35 26.48 37.35C27.4 37.35 28.28 37.22 29.12 36.97L29.12 61.05C29.12 62.74 30.3 64.21 31.96 64.56L72.26 73.83C74.49 74.3 76.58 72.6 76.58 70.33L76.58 34.12C76.58 32.43 75.4 30.97 73.74 30.62Z" />
										<path id="Path 2370" className="shp0" d="M64.89 36.97L64.66 36.91L64.66 75.39L63.89 75.26L62.8 79.76C62.8 79.76 67.32 79.64 67.32 75.86L67.32 40.22C67.32 38.72 66.33 37.4 64.89 36.97Z" />
										<path id="Path 2371" className="shp2" d="M63.09 37.31L20 27.76L18.66 22.66C17.03 25.2 17 27.12 17 27.12L17 66.41C17 68.11 18.18 69.57 19.83 69.92L61.6 79.68C63.83 80.15 65.93 78.45 65.93 76.18L65.93 40.81C65.93 39.12 64.74 37.66 63.09 37.31Z" />
										<path id="Path 2372" className="shp0" d="M76.19 30.53L29.06 20.16C27.15 19.77 25.29 19.7 23.53 19.95C21.46 20.25 19.73 21.06 18.66 22.66C17.62 24.21 17.81 25.43 18.15 26.18C19.4 28.97 24.69 29.81 25.44 29.92L64.31 38.55C64.31 38.55 65.86 38.83 65.93 41.25C65.93 41.25 66.99 37.61 64.82 36.96C64.77 36.94 64.72 36.92 64.66 36.91L25.76 28.27C25.74 28.26 25.72 28.26 25.7 28.26C24.38 28.07 20.44 27.18 19.68 25.49C19.59 25.3 19.32 24.69 20.05 23.6C20.86 22.39 22.17 21.85 23.77 21.62C25.33 21.39 27 21.46 28.72 21.81L75.36 32.08L75.36 32.08L75.37 32.08L75.41 32.09C75.57 32.12 76.16 32.3 76.39 32.97C76.58 33.51 76.6 32.6 76.59 31.97C76.71 31.85 76.8 31.7 76.84 31.53C76.94 31.07 76.65 30.63 76.19 30.53Z" />
									</g>
									<g id="Group 1096">
										<g id="Group 1095">
											<path id="Path 2373" className="shp1" d="M69.95 53.63L54.58 49.89C53.39 49.63 52.23 49.77 51.2 50.21L51.19 50.2L51.07 50.26C50.94 50.32 50.81 50.39 50.68 50.46L48.61 51.51L48.95 51.93C48.22 52.87 47.77 54.06 47.77 55.37L47.77 55.71C47.77 58.34 49.6 60.62 52.17 61.19L67.59 64.94L68.49 66.06C68.48 66.07 69.84 65.39 70.32 65.15C70.35 65.13 70.39 65.12 70.43 65.1C70.46 65.08 70.48 65.07 70.48 65.07L70.48 65.06C71.02 64.74 71.4 64.17 71.4 63.48L71.4 55.43C71.39 54.56 70.79 53.82 69.95 53.63Z" />
											<path id="Path 2374" className="shp3" d="M67.02 66.37L50.03 62.28C47.45 61.71 45.62 59.44 45.62 56.8L45.62 56.46C45.62 52.88 48.93 50.22 52.43 50.99L67.8 54.72C68.65 54.91 69.25 55.66 69.25 56.52L69.25 64.58C69.25 65.75 68.16 66.62 67.02 66.37Z" />
										</g>
										<path id="Path 2375" className="shp1" d="M54.01 56.84C54.01 58.31 52.82 59.5 51.36 59.5C49.89 59.5 48.7 58.31 48.7 56.84C48.7 55.38 49.89 54.19 51.36 54.19C52.82 54.19 54.01 55.38 54.01 56.84Z" />
									</g>
									<g id="Group 1103">
										<g id="Group 1102" clip-path="url(#cp2)">
											<path id="Path 2376" className="shp4" d="M58.63 24.42C58.24 20.27 56.24 16.72 53.42 14.52C52.51 13.81 51.51 13.24 50.45 12.84C50.08 12.69 49.69 12.57 49.3 12.47C48.74 12.33 48.15 12.23 47.57 12.18C47.22 12.15 46.87 12.15 46.51 12.16L46.51 12.15L46.4 12.16C46.2 12.17 45.99 12.17 45.79 12.19C45.58 12.21 45.38 12.24 45.17 12.27L42.29 12.52L42.35 13.14C37.82 15.29 34.89 20.65 35.45 26.6C35.87 31.05 38.13 34.8 41.27 36.95C41.78 37.29 42.31 37.6 42.85 37.86C43.22 38.03 43.6 38.19 43.98 38.32C44.23 38.4 44.48 38.48 44.74 38.54L44.8 39.16L49.98 38.68L50.15 38.48C55.56 36.93 59.25 31.04 58.63 24.42Z" />
											<g id="Group 1100">
												<g id="Group 1099">
													<path id="Path 2377" className="shp5" d="M55.13 24.75C55.82 32.11 51.2 38.56 44.8 39.16C44.44 39.2 44.08 39.21 43.73 39.21C42.61 39.2 41.52 39 40.48 38.65C40.1 38.52 39.72 38.36 39.35 38.19C38.81 37.93 38.28 37.62 37.77 37.28C34.64 35.13 32.37 31.38 31.95 26.93C31.26 19.58 35.89 13.12 42.29 12.52C42.89 12.46 43.48 12.46 44.07 12.51C44.66 12.56 45.24 12.65 45.8 12.8C46.19 12.9 46.58 13.02 46.95 13.16C48.01 13.57 49.01 14.14 49.92 14.85C52.74 17.05 54.74 20.6 55.13 24.75Z" />
													<g id="Group 1097" style="opacity: 0.31">
														<path id="Path 2378" className="shp6" d="M42.68 16.65C38.27 17.07 35.07 21.53 35.55 26.6C36.02 31.66 40 35.45 44.41 35.03C48.82 34.62 52.02 30.16 51.54 25.09C51.06 20.02 47.09 16.24 42.68 16.65Z" />
													</g>
													<g id="Group 1098">
														<path id="Path 2379" className="shp7" d="M36.04 26.65C35.52 21.21 38.95 16.43 43.68 15.98C43.73 15.98 43.78 15.98 43.83 15.98C43.43 15.95 43.02 15.95 42.61 15.98C37.88 16.43 34.45 21.21 34.97 26.65C35.47 32.04 39.65 36.06 44.33 35.7C40.1 35.42 36.5 31.62 36.04 26.65Z" />
														<path id="Path 2380" className="shp4" d="M52.12 25.04C51.65 20.06 48.06 16.26 43.83 15.98C43.78 15.98 43.73 15.98 43.68 15.99C38.95 16.43 35.52 21.21 36.04 26.65C36.5 31.62 40.1 35.42 44.33 35.71C44.37 35.7 44.42 35.71 44.47 35.7C49.21 35.25 52.63 30.48 52.12 25.04Z" />
													</g>
												</g>
											</g>
											<g id="Group 1101">
												<path id="Path 2381" className="shp8" d="M44.52 29.53L44.56 30.84L42.98 30.9L42.94 29.64C41.81 29.61 40.72 29.33 40.03 28.92L40.81 26.85C41.57 27.29 42.56 27.55 43.43 27.52C44.18 27.5 44.44 27.32 44.43 27.04C44.4 26 40.08 26.98 39.98 23.9C39.93 22.56 40.81 21.41 42.64 21.08L42.6 19.79L44.18 19.73L44.22 21C45.06 21.05 45.87 21.25 46.52 21.6L45.8 23.65C45.01 23.27 44.27 23.09 43.59 23.11C42.82 23.14 42.58 23.38 42.59 23.67C42.62 24.66 46.93 23.69 47.04 26.73C47.08 28.01 46.25 29.15 44.52 29.53Z" />
											</g>
										</g>
									</g>
								</g>
								<g id="Group 1115">
									<g id="Group 1109">
										<path id="Path 2383" className="shp1" d="M68.3 51.9L68.31 55.23L80.05 62.05L103.64 48.43L103.63 45.1L91.89 38.28" />
										<g id="Group 1105">
											<path id="Path 2384" fill-rule="evenodd" className="shp9" d="M89.18 41.27C90.66 42.13 93.07 42.13 94.56 41.27L98.47 43.55C96.98 44.41 96.97 45.8 98.45 46.66L82.74 55.73C81.26 54.87 78.86 54.87 77.37 55.73L73.45 53.46C74.94 52.6 74.95 51.2 73.47 50.34L89.18 41.27ZM89.46 50.54C91.41 49.41 91.42 47.59 89.49 46.47C87.55 45.34 84.41 45.34 82.46 46.47C80.51 47.59 80.5 49.41 82.44 50.54C84.37 51.66 87.52 51.66 89.46 50.54Z" />
										</g>
										<g id="Group 1106">
											<path id="Path 2385" fill-rule="evenodd" className="shp10" d="M103.63 45.1L80.04 58.72L68.3 51.9L91.89 38.28L103.63 45.1ZM77.37 55.73C78.86 54.87 81.26 54.87 82.74 55.73L98.45 46.66C96.97 45.8 96.98 44.41 98.47 43.55L94.56 41.27C93.07 42.13 90.66 42.13 89.18 41.27L73.47 50.34C74.95 51.2 74.94 52.6 73.45 53.46L77.37 55.73Z" />
										</g>
										<g id="Group 1107">
											<path id="Path 2386" className="shp11" d="M78.47 46.02L90.21 52.84L93.81 50.77L82.07 43.94L78.47 46.02Z" />
										</g>
										<g id="Group 1108">
											<path id="Path 2387" className="shp12" d="M90.23 52.84L90.24 56.17L93.84 54.09L93.82 50.77L90.23 52.84Z" />
										</g>
										<path id="Path 2388" className="shp13" d="M80.04 58.72L80.04 62.05L68.31 55.23L68.31 51.9L80.04 58.72Z" />
									</g>
									<g id="Group 1114">
										<path id="Path 2389" className="shp1" d="M66.26 47.36L66.28 50.69L78.02 57.51L101.61 43.89L101.59 40.56L89.85 33.74" />
										<g id="Group 1110">
											<path id="Path 2390" fill-rule="evenodd" className="shp9" d="M87.15 36.73C88.62 37.59 91.03 37.59 92.52 36.73L96.43 39.01C94.94 39.86 94.93 41.26 96.41 42.12L80.7 51.19C79.22 50.33 76.82 50.33 75.33 51.19L71.41 48.92C72.9 48.06 72.91 46.66 71.43 45.8L87.15 36.73ZM87.43 46C89.37 44.87 89.38 43.05 87.45 41.93C85.52 40.8 82.37 40.8 80.42 41.93C78.47 43.05 78.47 44.87 80.4 46C82.33 47.12 85.48 47.12 87.43 46Z" />
										</g>
										<g id="Group 1111">
											<path id="Path 2391" fill-rule="evenodd" className="shp10" d="M101.59 40.56L78 54.18L66.26 47.36L89.85 33.74L101.59 40.56ZM75.33 51.19C76.82 50.33 79.22 50.33 80.7 51.19L96.41 42.12C94.94 41.26 94.94 39.86 96.43 39.01L92.52 36.73C91.03 37.59 88.63 37.59 87.15 36.73L71.43 45.8C72.91 46.66 72.9 48.06 71.41 48.92L75.33 51.19Z" />
										</g>
										<g id="Group 1112">
											<path id="Path 2392" className="shp11" d="M76.44 41.48L88.18 48.3L91.77 46.23L80.03 39.4L76.44 41.48Z" />
										</g>
										<g id="Group 1113">
											<path id="Path 2393" className="shp12" d="M88.19 48.3L88.2 51.63L91.8 49.55L91.78 46.23L88.19 48.3Z" />
										</g>
										<path id="Path 2394" className="shp13" d="M78 54.18L78 57.51L66.28 50.68L66.28 47.36L78 54.18Z" />
									</g>
								</g>
								<g id="Group 1126">
									<g id="Group 1124">
										<g id="Group 1123">
											<g id="Group 1116">
												<path id="Path 2395" className="shp14" d="M57.13 77.92C55.46 78.89 54.42 80.08 54.01 81.33C54.02 80.35 54.02 79.38 54.02 78.41C54.43 77.16 55.47 75.96 57.14 74.99C61.58 72.41 68.8 72.41 73.27 74.99C75.51 76.28 76.63 77.98 76.64 79.67C76.64 80.64 76.63 81.62 76.63 82.59C76.62 80.9 75.5 79.21 73.26 77.92C68.79 75.34 61.57 75.34 57.13 77.92Z" />
											</g>
											<g id="Group 1117">
												<path id="Path 2396" className="shp14" d="M54.01 81.33C53.88 81.73 53.81 82.15 53.81 82.56L53.82 79.64C53.82 79.22 53.89 78.81 54.02 78.41C54.02 78.89 54.02 79.38 54.02 79.87C54.02 79.98 54.02 80.13 54.02 80.25C54.02 80.44 54.02 80.62 54.02 80.81C54.02 80.91 54.02 81.05 54.02 81.16C54.01 81.21 54.02 81.28 54.01 81.33Z" />
											</g>
											<g id="Group 1118">
												<path id="Path 2397" className="shp15" d="M76.64 79.7L76.63 82.62C76.62 84.3 75.52 85.98 73.31 87.26C68.87 89.84 61.65 89.84 57.18 87.26C54.93 85.97 53.81 84.26 53.81 82.56L53.82 79.64C53.82 81.34 54.94 83.04 57.19 84.34C61.66 86.92 68.88 86.92 73.32 84.34C75.53 83.06 76.63 81.38 76.64 79.7Z" />
											</g>
											<g id="Group 1119">
												<path id="Path 2398" className="shp14" d="M76.63 82.62C76.63 82.61 76.63 82.6 76.63 82.59C76.63 81.62 76.64 80.64 76.64 79.67C76.64 79.68 76.64 79.69 76.64 79.7C76.64 80.58 76.63 81.74 76.63 82.62Z" />
											</g>
											<g id="Group 1120">
												<path id="Path 2399" className="shp4" d="M73.27 74.99C77.74 77.57 77.76 81.76 73.32 84.34C68.88 86.92 61.66 86.92 57.19 84.34C52.72 81.76 52.69 77.58 57.14 75C61.58 72.41 68.8 72.41 73.27 74.99Z" />
											</g>
											<path id="Path 2400" className="shp7" d="M57.14 76.62C61.58 74.04 68.8 74.04 73.27 76.62C75.16 77.71 76.25 79.09 76.55 80.5C76.97 78.55 75.87 76.5 73.27 74.99C68.8 72.41 61.58 72.41 57.14 74.99C54.57 76.49 53.5 78.52 53.91 80.46C54.21 79.06 55.28 77.7 57.14 76.62Z" />
											<g id="Group 1121">
												<path id="Path 2401" className="shp4" d="M79.75 79.71L79.74 82.63C79.74 84.77 78.33 86.9 75.52 88.54C69.87 91.82 60.68 91.82 54.99 88.54C52.13 86.88 50.7 84.71 50.7 82.55L50.71 79.62C50.7 81.79 52.13 83.96 55 85.61C60.69 88.9 69.88 88.9 75.53 85.61C78.34 83.98 79.74 81.85 79.75 79.71Z" />
											</g>
											<g id="Group 1122">
												<path id="Path 2402" fill-rule="evenodd" className="shp5" d="M75.47 73.72C81.15 77 81.18 82.33 75.53 85.61C69.88 88.9 60.69 88.9 55 85.61C49.31 82.33 49.28 77 54.93 73.72C60.58 70.43 69.78 70.43 75.47 73.72ZM57.19 84.34C61.66 86.92 68.88 86.92 73.32 84.34C77.76 81.76 77.74 77.57 73.27 74.99C68.8 72.41 61.58 72.41 57.14 74.99C52.7 77.58 52.72 81.76 57.19 84.34Z" />
											</g>
										</g>
									</g>
									<g id="Group 1125">
										<path id="Path 2403" className="shp5" d="M65.98 82.94L65.86 83.86L64.17 83.63L64.29 82.75C63.11 82.54 61.98 82.15 61.3 81.75L62.41 80.44C63.15 80.87 64.17 81.22 65.09 81.35C65.89 81.46 66.19 81.38 66.22 81.18C66.32 80.45 61.62 80.41 61.92 78.23C62.04 77.29 63.13 76.63 65.11 76.71L65.24 75.8L66.92 76.03L66.8 76.92C67.68 77.1 68.51 77.38 69.16 77.74L68.12 79.04C67.33 78.64 66.58 78.39 65.85 78.29C65.02 78.18 64.74 78.31 64.71 78.51C64.62 79.21 69.31 79.26 69.02 81.41C68.9 82.31 67.86 82.96 65.98 82.94Z" />
									</g>
								</g>
								<g id="Group 1171">
									<g id="Group 1137">
										<g id="Group 1135">
											<g id="Group 1134">
												<g id="Group 1127">
													<path id="Path 2404" className="shp14" d="M7.57 69.35C6 70.26 5.02 71.38 4.63 72.56C4.64 71.64 4.64 70.73 4.64 69.81C5.03 68.63 6.01 67.51 7.57 66.6C11.76 64.17 18.56 64.17 22.77 66.6C24.87 67.81 25.93 69.4 25.93 71C25.93 71.91 25.93 72.83 25.93 73.75C25.92 72.15 24.86 70.56 22.76 69.35C18.55 66.92 11.75 66.92 7.57 69.35Z" />
												</g>
												<g id="Group 1128">
													<path id="Path 2405" className="shp14" d="M4.63 72.56C4.51 72.94 4.45 73.33 4.44 73.72L4.45 70.96C4.45 70.58 4.52 70.19 4.64 69.81C4.64 70.27 4.64 70.72 4.64 71.18C4.64 71.29 4.64 71.44 4.64 71.54C4.64 71.72 4.64 71.89 4.64 72.07C4.64 72.17 4.64 72.3 4.64 72.4C4.64 72.45 4.64 72.51 4.63 72.56Z" />
												</g>
												<g id="Group 1129">
													<path id="Path 2406" className="shp15" d="M25.93 71.02L25.93 73.78C25.92 75.36 24.88 76.94 22.8 78.15C18.62 80.58 11.82 80.58 7.62 78.15C5.5 76.92 4.44 75.32 4.44 73.72L4.45 70.96C4.45 72.57 5.51 74.17 7.62 75.4C11.83 77.82 18.63 77.82 22.81 75.39C24.89 74.19 25.93 72.61 25.93 71.02Z" />
												</g>
												<g id="Group 1130">
													<path id="Path 2407" className="shp14" d="M25.93 73.78C25.93 73.77 25.93 73.76 25.93 73.75C25.93 72.83 25.93 71.91 25.93 70.99C25.93 71.01 25.93 71.01 25.93 71.03C25.93 71.85 25.93 72.95 25.93 73.78Z" />
												</g>
												<g id="Group 1131">
													<path id="Path 2408" className="shp9" d="M22.76 66.6C26.97 69.03 26.99 72.96 22.81 75.39C18.63 77.82 11.83 77.82 7.62 75.4C3.41 72.97 3.39 69.03 7.57 66.6C11.76 64.17 18.56 64.17 22.76 66.6Z" />
												</g>
												<path id="Path 2409" className="shp10" d="M7.57 68.13C11.76 65.7 18.56 65.7 22.77 68.13C24.54 69.15 25.57 70.45 25.85 71.78C26.24 69.94 25.22 68.01 22.77 66.6C18.56 64.17 11.76 64.17 7.57 66.6C5.16 68 4.15 69.91 4.54 71.74C4.82 70.42 5.83 69.14 7.57 68.13Z" />
												<g id="Group 1132">
													<path id="Path 2410" className="shp4" d="M28.86 71.03L28.86 73.78C28.85 75.8 27.53 77.81 24.88 79.35C19.56 82.44 10.91 82.44 5.55 79.35C2.86 77.79 1.51 75.75 1.52 73.71L1.52 70.95C1.52 72.99 2.87 75.04 5.56 76.59C10.92 79.69 19.57 79.69 24.89 76.59C27.54 75.06 28.86 73.05 28.86 71.03Z" />
												</g>
												<g id="Group 1133">
													<path id="Path 2411" fill-rule="evenodd" className="shp5" d="M24.83 65.4C30.18 68.49 30.21 73.5 24.89 76.59C19.57 79.69 10.91 79.69 5.56 76.59C0.2 73.5 0.18 68.49 5.5 65.4C10.82 62.3 19.47 62.3 24.83 65.4ZM7.62 75.4C11.83 77.82 18.63 77.82 22.81 75.39C26.99 72.96 26.97 69.03 22.76 66.6C18.56 64.17 11.76 64.17 7.57 66.6C3.39 69.03 3.41 72.97 7.62 75.4Z" />
												</g>
											</g>
										</g>
										<g id="Group 1136">
											<path id="Path 2412" className="shp10" d="M15.9 74.07L15.78 74.94L14.2 74.73L14.31 73.9C13.19 73.7 12.13 73.34 11.5 72.95L12.54 71.72C13.24 72.13 14.2 72.46 15.06 72.58C15.82 72.68 16.1 72.61 16.13 72.42C16.22 71.73 11.8 71.69 12.07 69.65C12.19 68.76 13.22 68.14 15.08 68.21L15.2 67.36L16.79 67.57L16.67 68.41C17.5 68.58 18.28 68.84 18.89 69.18L17.91 70.41C17.17 70.03 16.46 69.8 15.77 69.7C15 69.6 14.73 69.72 14.7 69.91C14.61 70.57 19.04 70.61 18.76 72.63C18.65 73.48 17.67 74.1 15.9 74.07Z" />
										</g>
									</g>
									<g id="Group 1148">
										<g id="Group 1146">
											<g id="Group 1145">
												<g id="Group 1138">
													<path id="Path 2413" className="shp14" d="M8.44 65.76C6.88 66.67 5.9 67.79 5.51 68.97C5.52 68.05 5.52 67.13 5.52 66.21C5.91 65.04 6.88 63.91 8.45 63C12.63 60.57 19.43 60.57 23.64 63C25.75 64.22 26.8 65.81 26.81 67.4C26.81 68.32 26.81 69.24 26.8 70.15C26.8 68.56 25.74 66.97 23.64 65.76C19.43 63.33 12.63 63.33 8.44 65.76Z" />
												</g>
												<g id="Group 1139">
													<path id="Path 2414" className="shp14" d="M5.51 68.97C5.39 69.35 5.32 69.74 5.32 70.12L5.33 67.37C5.33 66.98 5.39 66.6 5.52 66.21C5.52 66.67 5.52 67.13 5.52 67.59C5.52 67.7 5.52 67.84 5.52 67.95C5.52 68.13 5.51 68.3 5.51 68.48C5.51 68.58 5.51 68.71 5.51 68.81C5.51 68.86 5.52 68.92 5.51 68.97Z" />
												</g>
												<g id="Group 1140">
													<path id="Path 2415" className="shp15" d="M26.81 67.43L26.8 70.18C26.8 71.77 25.76 73.35 23.68 74.55C19.5 76.98 12.7 76.98 8.49 74.55C6.38 73.33 5.32 71.73 5.32 70.12L5.33 67.37C5.33 68.97 6.38 70.58 8.5 71.8C12.71 74.23 19.51 74.23 23.69 71.8C25.77 70.59 26.81 69.01 26.81 67.43Z" />
												</g>
												<g id="Group 1141">
													<path id="Path 2416" className="shp14" d="M26.8 70.18C26.8 70.17 26.8 70.16 26.8 70.15C26.81 69.24 26.81 68.32 26.81 67.4C26.81 67.41 26.81 67.42 26.81 67.43C26.81 68.26 26.81 69.36 26.8 70.18Z" />
												</g>
												<g id="Group 1142">
													<path id="Path 2417" className="shp4" d="M23.64 63C27.85 65.43 27.87 69.37 23.69 71.8C19.51 74.23 12.71 74.23 8.5 71.8C4.29 69.37 4.27 65.43 8.45 63C12.63 60.57 19.43 60.57 23.64 63Z" />
												</g>
												<path id="Path 2418" className="shp7" d="M8.45 64.54C12.63 62.11 19.43 62.11 23.64 64.54C25.42 65.56 26.44 66.85 26.73 68.19C27.12 66.35 26.09 64.42 23.64 63C19.43 60.57 12.63 60.57 8.45 63C6.03 64.41 5.02 66.32 5.42 68.15C5.7 66.83 6.71 65.55 8.45 64.54Z" />
												<g id="Group 1143">
													<path id="Path 2419" className="shp4" d="M29.74 67.44L29.73 70.19C29.73 72.21 28.41 74.22 25.76 75.75C20.44 78.85 11.79 78.85 6.43 75.75C3.73 74.2 2.39 72.15 2.39 70.11L2.4 67.36C2.4 69.4 3.74 71.44 6.44 73C11.79 76.09 20.45 76.09 25.77 73C28.41 71.46 29.74 69.45 29.74 67.44Z" />
												</g>
												<g id="Group 1144">
													<path id="Path 2420" fill-rule="evenodd" className="shp5" d="M25.71 61.8C31.06 64.9 31.09 69.91 25.77 73C20.45 76.09 11.79 76.09 6.44 73C1.08 69.91 1.05 64.89 6.37 61.8C11.7 58.71 20.35 58.71 25.71 61.8ZM8.5 71.8C12.71 74.23 19.51 74.23 23.69 71.8C27.87 69.37 27.85 65.43 23.64 63C19.43 60.57 12.63 60.57 8.45 63C4.27 65.43 4.29 69.37 8.5 71.8Z" />
												</g>
											</g>
										</g>
										<g id="Group 1147">
											<path id="Path 2421" className="shp10" d="M16.78 70.48L16.66 71.35L15.08 71.13L15.19 70.3C14.07 70.1 13.01 69.74 12.38 69.36L13.41 68.13C14.11 68.54 15.08 68.87 15.94 68.98C16.69 69.09 16.98 69.01 17 68.83C17.1 68.13 12.67 68.1 12.95 66.05C13.07 65.17 14.1 64.55 15.96 64.62L16.08 63.76L17.66 63.98L17.55 64.82C18.37 64.99 19.16 65.24 19.77 65.58L18.79 66.82C18.05 66.43 17.34 66.2 16.65 66.11C15.88 66 15.61 66.13 15.58 66.31C15.49 66.97 19.92 67.02 19.64 69.04C19.53 69.89 18.55 70.51 16.78 70.48Z" />
										</g>
									</g>
									<g id="Group 1159">
										<g id="Group 1157">
											<g id="Group 1156">
												<g id="Group 1149">
													<path id="Path 2422" className="shp14" d="M6.05 61.21C4.48 62.13 3.51 63.25 3.12 64.42C3.12 63.51 3.12 62.59 3.13 61.67C3.51 60.5 4.49 59.37 6.06 58.46C10.24 56.03 17.04 56.03 21.25 58.46C23.35 59.68 24.41 61.27 24.42 62.86C24.42 63.78 24.41 64.7 24.41 65.61C24.4 64.02 23.34 62.43 21.24 61.21C17.03 58.78 10.23 58.78 6.05 61.21Z" />
												</g>
												<g id="Group 1150">
													<path id="Path 2423" className="shp14" d="M3.12 64.42C2.99 64.81 2.93 65.19 2.93 65.58L2.94 62.83C2.94 62.44 3 62.06 3.13 61.67C3.13 62.13 3.12 62.59 3.12 63.05C3.12 63.16 3.12 63.3 3.12 63.41C3.12 63.58 3.12 63.76 3.12 63.93C3.12 64.03 3.12 64.17 3.12 64.27C3.12 64.31 3.13 64.38 3.12 64.42Z" />
												</g>
												<g id="Group 1151">
													<path id="Path 2424" className="shp15" d="M24.42 62.89L24.41 65.64C24.41 67.22 23.37 68.8 21.29 70.01C17.11 72.44 10.31 72.44 6.1 70.01C3.98 68.79 2.92 67.19 2.93 65.58L2.94 62.83C2.93 64.43 3.99 66.04 6.11 67.26C10.31 69.69 17.11 69.69 21.3 67.26C23.37 66.05 24.41 64.47 24.42 62.89Z" />
												</g>
												<g id="Group 1152">
													<path id="Path 2425" className="shp14" d="M24.41 65.64C24.41 65.63 24.41 65.62 24.41 65.61C24.41 64.69 24.42 63.78 24.42 62.86C24.42 62.87 24.42 62.88 24.42 62.89C24.42 63.72 24.41 64.82 24.41 65.64Z" />
												</g>
												<g id="Group 1153">
													<path id="Path 2426" className="shp9" d="M21.25 58.46C25.46 60.89 25.48 64.83 21.3 67.26C17.11 69.69 10.31 69.69 6.11 67.26C1.9 64.83 1.88 60.89 6.06 58.46C10.24 56.03 17.04 56.03 21.25 58.46Z" />
												</g>
												<path id="Path 2427" className="shp10" d="M6.06 60C10.24 57.57 17.04 57.57 21.25 60C23.02 61.02 24.05 62.31 24.33 63.65C24.73 61.8 23.7 59.88 21.25 58.46C17.04 56.03 10.24 56.03 6.06 58.46C3.64 59.87 2.63 61.78 3.02 63.61C3.3 62.29 4.31 61.01 6.06 60Z" />
												<g id="Group 1154">
													<path id="Path 2428" className="shp4" d="M27.35 62.9L27.34 65.65C27.33 67.66 26.01 69.68 23.37 71.21C18.05 74.3 9.39 74.3 4.04 71.21C1.34 69.66 -0.01 67.61 0 65.57L0.01 62.82C0 64.86 1.35 66.9 4.04 68.46C9.4 71.55 18.05 71.55 23.38 68.46C26.02 66.92 27.34 64.91 27.35 62.9Z" />
												</g>
												<g id="Group 1155">
													<path id="Path 2429" fill-rule="evenodd" className="shp5" d="M23.31 57.26C28.67 60.35 28.7 65.37 23.38 68.46C18.06 71.55 9.4 71.55 4.04 68.46C-1.31 65.37 -1.34 60.35 3.98 57.26C9.3 54.17 17.96 54.17 23.31 57.26ZM6.11 67.26C10.31 69.69 17.11 69.69 21.3 67.26C25.48 64.83 25.46 60.89 21.25 58.46C17.04 56.03 10.24 56.03 6.06 58.46C1.88 60.89 1.9 64.83 6.11 67.26Z" />
												</g>
											</g>
										</g>
										<g id="Group 1158">
											<path id="Path 2430" className="shp10" d="M14.38 65.94L14.27 66.81L12.68 66.59L12.79 65.76C11.68 65.56 10.62 65.2 9.98 64.82L11.02 63.59C11.72 63.99 12.68 64.32 13.55 64.44C14.3 64.54 14.58 64.47 14.61 64.28C14.7 63.59 10.28 63.56 10.56 61.51C10.68 60.62 11.7 60.01 13.57 60.08L13.69 59.22L15.27 59.44L15.16 60.28C15.98 60.44 16.77 60.7 17.37 61.04L16.39 62.27C15.66 61.89 14.94 61.66 14.26 61.57C13.48 61.46 13.21 61.58 13.19 61.77C13.1 62.43 17.52 62.47 17.25 64.5C17.13 65.35 16.16 65.96 14.38 65.94Z" />
										</g>
									</g>
									<g id="Group 1170">
										<g id="Group 1168">
											<g id="Group 1167">
												<g id="Group 1160">
													<path id="Path 2431" className="shp14" d="M6.23 57.04C4.66 57.95 3.68 59.07 3.29 60.25C3.3 59.33 3.3 58.41 3.3 57.49C3.69 56.32 4.67 55.19 6.23 54.28C10.41 51.85 17.22 51.85 21.42 54.28C23.53 55.5 24.58 57.09 24.59 58.68C24.59 59.6 24.59 60.52 24.59 61.43C24.58 59.84 23.52 58.25 21.42 57.04C17.21 54.61 10.41 54.61 6.23 57.04Z" />
												</g>
												<g id="Group 1161">
													<path id="Path 2432" className="shp14" d="M3.29 60.25C3.17 60.63 3.1 61.02 3.1 61.4L3.11 58.65C3.11 58.26 3.18 57.88 3.3 57.49C3.3 57.95 3.3 58.41 3.3 58.87C3.3 58.98 3.3 59.12 3.3 59.23C3.3 59.41 3.3 59.58 3.3 59.76C3.29 59.86 3.29 59.99 3.29 60.09C3.29 60.14 3.3 60.2 3.29 60.25Z" />
												</g>
												<g id="Group 1162">
													<path id="Path 2433" className="shp15" d="M24.59 58.71L24.59 61.46C24.58 63.05 23.54 64.63 21.46 65.83C17.28 68.26 10.48 68.26 6.27 65.83C4.16 64.61 3.1 63.01 3.1 61.4L3.11 58.65C3.11 60.25 4.17 61.86 6.28 63.08C10.49 65.51 17.29 65.51 21.47 63.08C23.55 61.87 24.59 60.29 24.59 58.71Z" />
												</g>
												<g id="Group 1163">
													<path id="Path 2434" className="shp14" d="M24.59 61.46C24.59 61.45 24.59 61.44 24.59 61.43C24.59 60.52 24.59 59.6 24.59 58.68C24.59 58.69 24.59 58.7 24.59 58.71C24.59 59.54 24.59 60.64 24.59 61.46Z" />
												</g>
												<g id="Group 1164">
													<path id="Path 2435" className="shp4" d="M21.42 54.28C25.63 56.71 25.65 60.65 21.47 63.08C17.29 65.51 10.49 65.51 6.28 63.08C2.07 60.65 2.05 56.71 6.23 54.28C10.41 51.85 17.22 51.85 21.42 54.28Z" />
												</g>
												<path id="Path 2436" className="shp7" d="M6.23 55.82C10.41 53.39 17.22 53.39 21.42 55.82C23.2 56.84 24.22 58.13 24.51 59.47C24.9 57.63 23.88 55.7 21.42 54.28C17.22 51.85 10.42 51.85 6.23 54.28C3.82 55.69 2.81 57.6 3.2 59.43C3.48 58.11 4.49 56.83 6.23 55.82Z" />
												<g id="Group 1165">
													<path id="Path 2437" className="shp4" d="M27.52 58.72L27.52 61.47C27.51 63.49 26.19 65.5 23.54 67.03C18.22 70.13 9.57 70.13 4.21 67.03C1.52 65.48 0.17 63.43 0.18 61.39L0.18 58.64C0.18 60.68 1.52 62.72 4.22 64.28C9.57 67.37 18.23 67.37 23.55 64.28C26.19 62.74 27.52 60.73 27.52 58.72Z" />
												</g>
												<g id="Group 1166">
													<path id="Path 2438" fill-rule="evenodd" className="shp5" d="M23.49 53.08C28.84 56.18 28.87 61.19 23.55 64.28C18.23 67.37 9.57 67.37 4.22 64.28C-1.14 61.19 -1.17 56.18 4.15 53.08C9.48 49.99 18.13 49.99 23.49 53.08ZM6.28 63.08C10.49 65.51 17.29 65.51 21.47 63.08C25.65 60.65 25.63 56.71 21.42 54.28C17.22 51.85 10.42 51.85 6.23 54.28C2.05 56.71 2.07 60.65 6.28 63.08Z" />
												</g>
											</g>
										</g>
										<g id="Group 1169">
											<path id="Path 2439" className="shp5" d="M14.56 61.76L14.44 62.63L12.86 62.41L12.97 61.58C11.85 61.38 10.79 61.02 10.16 60.64L11.19 59.41C11.9 59.82 12.86 60.15 13.72 60.26C14.48 60.37 14.76 60.29 14.79 60.11C14.88 59.41 10.45 59.38 10.73 57.33C10.85 56.45 11.88 55.83 13.74 55.9L13.86 55.04L15.45 55.26L15.33 56.1C16.15 56.27 16.94 56.52 17.55 56.86L16.57 58.1C15.83 57.72 15.12 57.48 14.43 57.39C13.66 57.28 13.39 57.41 13.36 57.59C13.27 58.25 17.7 58.3 17.42 60.32C17.31 61.17 16.33 61.79 14.56 61.76Z" />
										</g>
									</g>
								</g>
								<g id="Group 1172">
									<path id="Path 2440" className="shp9" d="M41.4 0.6L41.85 1.76C42.12 2.48 42.68 3.04 43.4 3.31L44.56 3.76L43.4 4.21C42.68 4.48 42.12 5.04 41.85 5.76L41.4 6.92L40.95 5.76C40.68 5.04 40.12 4.48 39.4 4.21L38.25 3.76L39.4 3.31C40.12 3.04 40.68 2.48 40.95 1.76L41.4 0.6Z" />
									<path id="Path 2441" className="shp9" d="M6.16 12.98L6.48 13.81C6.68 14.32 7.08 14.73 7.6 14.93L8.43 15.25L7.6 15.57C7.08 15.77 6.68 16.17 6.48 16.69L6.16 17.52L5.84 16.69C5.64 16.17 5.23 15.77 4.72 15.57L3.89 15.25L4.72 14.93C5.23 14.73 5.64 14.32 5.84 13.81L6.16 12.98Z" />
									<path id="Path 2442" className="shp9" d="M71.39 10.84L71.69 11.61C71.87 12.09 72.25 12.47 72.73 12.65L73.51 12.95L72.73 13.25C72.25 13.43 71.87 13.81 71.69 14.29L71.39 15.07L71.09 14.29C70.91 13.81 70.53 13.43 70.05 13.25L69.28 12.95L70.05 12.65C70.53 12.47 70.91 12.09 71.09 11.61L71.39 10.84Z" />
									<path id="Path 2443" className="shp9" d="M6.82 41.48L7.06 42.11C7.21 42.5 7.52 42.8 7.91 42.95L8.54 43.19L7.91 43.44C7.52 43.59 7.21 43.89 7.06 44.28L6.82 44.91L6.58 44.28C6.43 43.89 6.12 43.59 5.73 43.44L5.1 43.19L5.73 42.95C6.12 42.8 6.43 42.5 6.58 42.11L6.82 41.48Z" />
									<path id="Path 2444" className="shp9" d="M87.21 28.81L87.45 29.44C87.6 29.83 87.91 30.13 88.3 30.28L88.93 30.53L88.3 30.77C87.91 30.92 87.6 31.22 87.45 31.61L87.21 32.24L86.97 31.61C86.82 31.22 86.51 30.92 86.12 30.77L85.49 30.53L86.12 30.28C86.51 30.13 86.82 29.83 86.97 29.44L87.21 28.81Z" />
								</g>
							</g>
						</g>
					</g>
				</g>
			</g>
		</g>
	</g>
</svg>